<svg xmlns="http://www.w3.org/2000/svg" viewBox="0 0 205 170.522">
  <defs>
    <style>
      .cls-1 {
        fill: #ba917f;
      }
    </style>
  </defs>
  <path id="twitter" class="cls-1" d="M201.74,54.328a81.176,81.176,0,0,1-14.135,4.767,44.072,44.072,0,0,0,11.633-18.526h0a2.311,2.311,0,0,0-3.38-2.691h0A81.563,81.563,0,0,1,174.249,46.8a5.508,5.508,0,0,1-1.35.168,5.728,5.728,0,0,1-3.784-1.445,44.2,44.2,0,0,0-29.243-11.036,47.253,47.253,0,0,0-14,2.162A42.818,42.818,0,0,0,97.013,67.5a47.147,47.147,0,0,0-1.048,16.274,1.583,1.583,0,0,1-.4,1.24,1.638,1.638,0,0,1-1.219.553c-.051,0-.1,0-.157-.007A115.887,115.887,0,0,1,14.539,43.008h0a2.311,2.311,0,0,0-3.788.3h0a44.247,44.247,0,0,0,7.19,53.723,39.606,39.606,0,0,1-10.081-3.9h0a2.311,2.311,0,0,0-3.433,1.992h0a44.252,44.252,0,0,0,25.813,40.769q-.472.011-.944.011a39.768,39.768,0,0,1-7.446-.71h0a2.311,2.311,0,0,0-2.635,2.975h0a44.3,44.3,0,0,0,34.988,30.128A81.555,81.555,0,0,1,8.527,182.16l-5.112,0a3.384,3.384,0,0,0-3.308,2.552,3.5,3.5,0,0,0,1.676,3.869,121.3,121.3,0,0,0,60.954,16.435,122.968,122.968,0,0,0,52.09-11.05,115.028,115.028,0,0,0,38.113-28.56,125.212,125.212,0,0,0,23.337-39.086,123.47,123.47,0,0,0,7.933-42.778v-.673a7.52,7.52,0,0,1,2.814-5.854A87.355,87.355,0,0,0,204.6,57.724h0a2.311,2.311,0,0,0-2.858-3.4Z" transform="translate(0 -34.491)"/>
</svg>
