<svg xmlns="http://www.w3.org/2000/svg" viewBox="0 0 122.5 123.064">
  <defs>
    <style>
      .cls-1 {
        fill: #2980b9;
      }

      .cls-2 {
        fill: #fff;
      }
    </style>
  </defs>
  <g id="Group_4" data-name="Group 4" transform="translate(-139 -59.936)">
    <path id="ic_verified_user_24px" class="cls-1" d="M33.034,1,3,14.349V34.371C3,52.892,15.815,70.212,33.034,74.417c17.22-4.2,30.034-21.524,30.034-40.046V14.349Z" transform="translate(164.74 83.583)"/>
    <path id="ic_3d_rotation_24px" class="cls-1" d="M38.354,110.142a54.471,54.471,0,0,1-17.06-12.685A53.345,53.345,0,0,1,7.742,66.66H.05a61.5,61.5,0,0,0,61.276,56.4l3.384-.154L45.173,103.374l-6.82,6.769ZM61.326,0,57.941.154,77.478,19.69l6.82-6.82a53.689,53.689,0,0,1,30.561,43.483h7.692A61.412,61.412,0,0,0,61.326,0Z" transform="translate(138.95 59.936)"/>
    <path id="ic_my_location_24px" class="cls-2" d="M12,8a4,4,0,1,0,4,4A4,4,0,0,0,12,8Zm8.94,3A8.994,8.994,0,0,0,13,3.06V1H11V3.06A8.994,8.994,0,0,0,3.06,11H1v2H3.06A8.994,8.994,0,0,0,11,20.94V23h2V20.94A8.994,8.994,0,0,0,20.94,13H23V11H20.94ZM12,19a7,7,0,1,1,7-7A6.995,6.995,0,0,1,12,19Z" transform="translate(186 110)"/>
  </g>
</svg>
